<svg width="7" height="34" viewBox="0 0 7 34" fill="none" xmlns="http://www.w3.org/2000/svg">
<path d="M2.952 6.136C1.576 6.136 0.888 5.432 0.888 4.024V2.728C0.888 1.352 1.576 0.663999 2.952 0.663999H4.248C5.576 0.663999 6.24 1.352 6.24 2.728V4.024C6.24 5.432 5.576 6.136 4.248 6.136H2.952ZM3.6 34C2.416 34 1.824 33.408 1.824 32.224V11.968C1.824 10.8 2.416 10.216 3.6 10.216C4.768 10.216 5.352 10.8 5.352 11.968V32.224C5.352 33.408 4.768 34 3.6 34Z" fill="url(#paint0_linear_20_18)"/>
<defs>
<linearGradient id="paint0_linear_20_18" x1="4" y1="-12" x2="4" y2="45" gradientUnits="userSpaceOnUse">
<stop stop-color="#C957B5"/>
<stop offset="1" stop-color="#F36C73"/>
</linearGradient>
</defs>
</svg>
