<svg width="730" height="543" viewBox="0 0 730 543" fill="none" xmlns="http://www.w3.org/2000/svg">
<path fill-rule="evenodd" clip-rule="evenodd" d="M619.328 13.8353C608.933 5.19549 595.573 0 581 0H60C45.0266 0 31.3343 5.48485 20.8225 14.555L319.602 241.777L619.328 13.8353ZM337.56 280.725L640.256 50.5249C640.746 53.6112 641 56.7759 641 60V296H505C474.072 296 449 321.072 449 352V462H60C50.7474 462 41.9839 459.906 34.1579 456.165L249.353 240.958L307.747 285.366C316.95 292.366 330.085 290.579 337.085 281.375C337.248 281.161 337.406 280.944 337.56 280.725ZM0 60C0 57.2021 0.191514 54.4489 0.562148 51.7528L214.508 214.459L4.39513 424.583C1.5612 417.612 0 409.989 0 402V60ZM497 327C487.059 327 479 335.059 479 345V363C479 370.513 483.603 376.951 490.142 379.647C491.842 359.678 508.59 344 529 344C545.605 344 559.786 354.377 565.412 369H630.588C636.214 354.377 650.395 344 667 344C687.868 344 704.909 360.39 705.95 381H712C721.941 381 730 372.941 730 363V345C730 335.059 721.941 327 712 327H497ZM567.95 381C567.864 379.302 567.67 377.634 567.374 376H628.626C628.33 377.634 628.136 379.302 628.05 381H567.95ZM558.935 408H637.065C644.22 416.557 654.974 422 667 422C679.026 422 689.78 416.557 696.935 408H702C711.941 408 720 416.059 720 426V444C720 453.941 711.941 462 702 462H594.119C589.058 446.332 574.352 435 557 435C556.366 435 555.735 435.015 555.109 435.045L546.552 417.837C551.325 415.427 555.536 412.065 558.935 408ZM541.727 408.134C541.814 408.09 541.901 408.045 541.988 408H541.661L541.727 408.134ZM539.152 408L534 410.562L534.074 410.711C532.428 411.01 530.732 411.167 529 411.167C524.316 411.167 519.898 410.023 516.012 408H539.152ZM539.039 420.696L546.819 436.342C545.192 436.781 543.607 437.323 542.071 437.959L533.979 421.685C535.703 421.465 537.393 421.133 539.039 420.696ZM525.106 421.808L535.032 441.771C527.964 446.598 522.566 453.689 519.881 462H505C495.059 462 487 453.941 487 444V426C487 417.89 492.363 411.033 499.737 408.782C506.077 415.973 515.027 420.809 525.106 421.808ZM520.989 489H511C501.059 489 493 497.059 493 507V525C493 534.941 501.059 543 511 543H596C605.941 543 614 534.941 614 525V507C614 497.059 605.941 489 596 489H593.011C587.134 503.094 573.224 513 557 513C540.776 513 526.866 503.094 520.989 489ZM580.845 489C575.858 496.911 567.043 502.167 557 502.167C546.957 502.167 538.142 496.911 533.155 489H580.845ZM582.49 462H531.51C536.016 452.445 545.736 445.833 557 445.833C568.264 445.833 577.984 452.445 582.49 462ZM667 411.167C671.684 411.167 676.102 410.023 679.988 408H654.012C657.898 410.023 662.316 411.167 667 411.167ZM638.903 381H695.097C694.071 366.377 681.884 354.833 667 354.833C652.116 354.833 639.929 366.377 638.903 381ZM557.097 381C556.071 366.377 543.884 354.833 529 354.833C514.116 354.833 501.929 366.377 500.903 381H557.097Z" fill="url(#paint0_linear_12_121)"/>
<defs>
<linearGradient id="paint0_linear_12_121" x1="395" y1="0" x2="395" y2="543" gradientUnits="userSpaceOnUse">
<stop stop-color="#C957B5"/>
<stop offset="1" stop-color="#F36C73"/>
</linearGradient>
</defs>
</svg>
